%TF.GenerationSoftware,KiCad,Pcbnew,(6.0.6)*%
%TF.CreationDate,2023-05-18T11:46:38+08:00*%
%TF.ProjectId,JoystickPCB,4a6f7973-7469-4636-9b50-43422e6b6963,rev?*%
%TF.SameCoordinates,Original*%
%TF.FileFunction,Copper,L2,Bot*%
%TF.FilePolarity,Positive*%
%FSLAX46Y46*%
G04 Gerber Fmt 4.6, Leading zero omitted, Abs format (unit mm)*
G04 Created by KiCad (PCBNEW (6.0.6)) date 2023-05-18 11:46:38*
%MOMM*%
%LPD*%
G01*
G04 APERTURE LIST*
%TA.AperFunction,ComponentPad*%
%ADD10C,1.600000*%
%TD*%
%TA.AperFunction,ComponentPad*%
%ADD11O,1.600000X1.600000*%
%TD*%
%TA.AperFunction,ComponentPad*%
%ADD12C,1.500000*%
%TD*%
%TA.AperFunction,ComponentPad*%
%ADD13C,2.000000*%
%TD*%
%TA.AperFunction,ComponentPad*%
%ADD14R,1.700000X1.700000*%
%TD*%
%TA.AperFunction,ComponentPad*%
%ADD15O,1.700000X1.700000*%
%TD*%
%TA.AperFunction,Conductor*%
%ADD16C,1.000000*%
%TD*%
G04 APERTURE END LIST*
D10*
%TO.P,R3,1*%
%TO.N,/VCC*%
X12000000Y-3810000D03*
D11*
%TO.P,R3,2*%
%TO.N,Net-(JS1-Pad4)*%
X12000000Y3810000D03*
%TD*%
D10*
%TO.P,R2,1*%
%TO.N,/VCC*%
X-3810000Y12000000D03*
D11*
%TO.P,R2,2*%
%TO.N,Net-(JS1-Pad3)*%
X3810000Y12000000D03*
%TD*%
D12*
%TO.P,JS1,1,A1*%
%TO.N,/GND*%
X-2500000Y8730000D03*
%TO.P,JS1,2,B1*%
%TO.N,/X*%
X0Y8730000D03*
%TO.P,JS1,3,C1*%
%TO.N,Net-(JS1-Pad3)*%
X2500000Y8730000D03*
%TO.P,JS1,4,A2*%
%TO.N,Net-(JS1-Pad4)*%
X8730000Y2500000D03*
%TO.P,JS1,5,B2*%
%TO.N,/Y*%
X8730000Y0D03*
%TO.P,JS1,6,C2*%
%TO.N,/GND*%
X8730000Y-2500000D03*
%TO.P,JS1,7,K2*%
%TO.N,/VCC*%
X-3250000Y-5750000D03*
%TO.P,JS1,8,K1*%
X3250000Y-5750000D03*
%TO.P,JS1,9,K3*%
%TO.N,/K*%
X-3250000Y-10250000D03*
%TO.P,JS1,10,K4*%
X3250000Y-10250000D03*
D13*
%TO.P,JS1,S,Shell*%
%TO.N,/GND*%
X6325000Y-5000000D03*
X6325000Y5000000D03*
X-6325000Y-5000000D03*
X-6325000Y5000000D03*
%TD*%
D14*
%TO.P,J1,1,Pin_1*%
%TO.N,/VCC*%
X-9500000Y5080000D03*
D15*
%TO.P,J1,2,Pin_2*%
%TO.N,/X*%
X-9500000Y2540000D03*
%TO.P,J1,3,Pin_3*%
%TO.N,/Y*%
X-9500000Y0D03*
%TO.P,J1,4,Pin_4*%
%TO.N,/K*%
X-9500000Y-2540000D03*
%TO.P,J1,5,Pin_5*%
%TO.N,/GND*%
X-9500000Y-5080000D03*
%TD*%
D16*
%TO.N,/VCC*%
X6000000Y-8000000D02*
X7810000Y-8000000D01*
X3750000Y-5750000D02*
X6000000Y-8000000D01*
X7810000Y-8000000D02*
X12000000Y-3810000D01*
X3250000Y-5750000D02*
X3750000Y-5750000D01*
%TO.N,Net-(JS1-Pad4)*%
X10040000Y3810000D02*
X8730000Y2500000D01*
X12000000Y3810000D02*
X10040000Y3810000D01*
%TO.N,Net-(JS1-Pad3)*%
X3810000Y10040000D02*
X2500000Y8730000D01*
X3810000Y12000000D02*
X3810000Y10040000D01*
%TO.N,/VCC*%
X-9500000Y6310000D02*
X-3810000Y12000000D01*
X-9500000Y5080000D02*
X-9500000Y6310000D01*
X3250000Y-5750000D02*
X-3250000Y-5750000D01*
X-3250000Y-5750000D02*
X-3250000Y-1170000D01*
X-3250000Y-1170000D02*
X-9500000Y5080000D01*
%TD*%
%TA.AperFunction,Conductor*%
%TO.N,/GND*%
G36*
X739703Y14472526D02*
G01*
X746156Y14472194D01*
X1480673Y14415574D01*
X1487101Y14414913D01*
X2217804Y14320702D01*
X2224189Y14319711D01*
X2949051Y14188173D01*
X2955378Y14186857D01*
X3672587Y14018320D01*
X3678823Y14016685D01*
X3678871Y14016671D01*
X4386440Y13811601D01*
X4392599Y13809643D01*
X5088750Y13568559D01*
X5094799Y13566289D01*
X5777689Y13289826D01*
X5783615Y13287248D01*
X6451430Y12976141D01*
X6457215Y12973263D01*
X7054563Y12656749D01*
X7108180Y12628339D01*
X7113806Y12625172D01*
X7417159Y12443933D01*
X7746287Y12247295D01*
X7751747Y12243839D01*
X8363981Y11834061D01*
X8369257Y11830330D01*
X8750549Y11545775D01*
X8959677Y11389704D01*
X8964746Y11385715D01*
X9021380Y11338743D01*
X9531821Y10915382D01*
X9536687Y10911131D01*
X10078899Y10412348D01*
X10083541Y10407852D01*
X10599445Y9881950D01*
X10603851Y9877223D01*
X11060174Y9361653D01*
X11092141Y9325535D01*
X11096296Y9320590D01*
X11273185Y9098790D01*
X11555654Y8744602D01*
X11559546Y8739456D01*
X11827542Y8365592D01*
X11988762Y8140685D01*
X11992391Y8135339D01*
X12044800Y8053689D01*
X12373287Y7541928D01*
X12390356Y7515335D01*
X12393702Y7509816D01*
X12689778Y6991931D01*
X12759356Y6870228D01*
X12762417Y6864539D01*
X13088104Y6220290D01*
X13094800Y6207044D01*
X13097560Y6201216D01*
X13165515Y6047718D01*
X13395792Y5527560D01*
X13398256Y5521586D01*
X13646492Y4872898D01*
X13652655Y4851091D01*
X13655732Y4834682D01*
X13661040Y4824229D01*
X13669838Y4801819D01*
X13673151Y4790229D01*
X13686987Y4768301D01*
X13696428Y4753337D01*
X13702209Y4743154D01*
X13721681Y4704809D01*
X13729725Y4696249D01*
X13744467Y4677200D01*
X13750876Y4667042D01*
X13757605Y4661099D01*
X13783519Y4638212D01*
X13791926Y4630061D01*
X13815282Y4605209D01*
X13815285Y4605206D01*
X13821431Y4598667D01*
X13829164Y4594116D01*
X13829166Y4594114D01*
X13831586Y4592690D01*
X13851075Y4578549D01*
X13860051Y4570622D01*
X13868176Y4566807D01*
X13868178Y4566806D01*
X13899389Y4552152D01*
X13909746Y4546688D01*
X13925574Y4537373D01*
X13946961Y4524786D01*
X13955660Y4522588D01*
X13955663Y4522587D01*
X13958430Y4521888D01*
X13981115Y4513782D01*
X13991900Y4508719D01*
X14000770Y4507338D01*
X14000773Y4507337D01*
X14025060Y4503556D01*
X14034738Y4502049D01*
X14046204Y4499713D01*
X14088181Y4489108D01*
X14097151Y4489440D01*
X14097152Y4489440D01*
X14150455Y4491414D01*
X14155118Y4491500D01*
X19365500Y4491500D01*
X19433621Y4471498D01*
X19480114Y4417842D01*
X19491500Y4365500D01*
X19491500Y-4365500D01*
X19471498Y-4433621D01*
X19417842Y-4480114D01*
X19365500Y-4491500D01*
X14162377Y-4491500D01*
X14154639Y-4491262D01*
X14109639Y-4488493D01*
X14109637Y-4488493D01*
X14100679Y-4487942D01*
X14091923Y-4489928D01*
X14091922Y-4489928D01*
X14054672Y-4498376D01*
X14044667Y-4500224D01*
X14031869Y-4502057D01*
X13997913Y-4506920D01*
X13989736Y-4510638D01*
X13987366Y-4511331D01*
X13969858Y-4517228D01*
X13967382Y-4518175D01*
X13958629Y-4520160D01*
X13950787Y-4524521D01*
X13950784Y-4524522D01*
X13917516Y-4543022D01*
X13908435Y-4547602D01*
X13873492Y-4563491D01*
X13873490Y-4563492D01*
X13865318Y-4567208D01*
X13858518Y-4573067D01*
X13856548Y-4574327D01*
X13841381Y-4584914D01*
X13839178Y-4586588D01*
X13831332Y-4590951D01*
X13825026Y-4597340D01*
X13825027Y-4597340D01*
X13798370Y-4624351D01*
X13790936Y-4631299D01*
X13761772Y-4656428D01*
X13761770Y-4656431D01*
X13754973Y-4662287D01*
X13750091Y-4669819D01*
X13748635Y-4671488D01*
X13737039Y-4685917D01*
X13735328Y-4688232D01*
X13729019Y-4694625D01*
X13706795Y-4735862D01*
X13701617Y-4744605D01*
X13680632Y-4776979D01*
X13680630Y-4776983D01*
X13675748Y-4784515D01*
X13673175Y-4793120D01*
X13672273Y-4795071D01*
X13665192Y-4812178D01*
X13664177Y-4814942D01*
X13659916Y-4822848D01*
X13658046Y-4831631D01*
X13654777Y-4846984D01*
X13649218Y-4865774D01*
X13398262Y-5521568D01*
X13395799Y-5527542D01*
X13327348Y-5682163D01*
X13097566Y-6201205D01*
X13097561Y-6201216D01*
X13094801Y-6207041D01*
X12930919Y-6531221D01*
X12762420Y-6864532D01*
X12759359Y-6870221D01*
X12393706Y-7509809D01*
X12390360Y-7515328D01*
X11992396Y-8135329D01*
X11988767Y-8140675D01*
X11843457Y-8343388D01*
X11571371Y-8722958D01*
X11559558Y-8739437D01*
X11555666Y-8744583D01*
X11229456Y-9153618D01*
X11096306Y-9320575D01*
X11092149Y-9325522D01*
X10603861Y-9877210D01*
X10599455Y-9881937D01*
X10083553Y-10407837D01*
X10078911Y-10412333D01*
X9536700Y-10911115D01*
X9531834Y-10915366D01*
X8964770Y-11385692D01*
X8959692Y-11389688D01*
X8369275Y-11830313D01*
X8363999Y-11834044D01*
X7751753Y-12243830D01*
X7746293Y-12247285D01*
X7113849Y-12625142D01*
X7108218Y-12628313D01*
X6457240Y-12973244D01*
X6451455Y-12976122D01*
X5783642Y-13287230D01*
X5777716Y-13289808D01*
X5094829Y-13566270D01*
X5088780Y-13568540D01*
X4597781Y-13738579D01*
X4479587Y-13779511D01*
X4392636Y-13809623D01*
X4386477Y-13811581D01*
X3678859Y-14016666D01*
X3672609Y-14018305D01*
X2955418Y-14186839D01*
X2949092Y-14188155D01*
X2224226Y-14319696D01*
X2217840Y-14320687D01*
X1487142Y-14414897D01*
X1480714Y-14415558D01*
X1142107Y-14441661D01*
X746178Y-14472182D01*
X739766Y-14472512D01*
X146521Y-14487729D01*
X3251Y-14491404D01*
X-3211Y-14491404D01*
X-146481Y-14487729D01*
X-739726Y-14472512D01*
X-746138Y-14472182D01*
X-1142302Y-14441643D01*
X-1480673Y-14415559D01*
X-1487101Y-14414898D01*
X-2217800Y-14320688D01*
X-2224186Y-14319697D01*
X-2224191Y-14319696D01*
X-2344204Y-14297917D01*
X-2949051Y-14188156D01*
X-2955377Y-14186840D01*
X-3429450Y-14075437D01*
X-3672580Y-14018303D01*
X-3678816Y-14016668D01*
X-4386447Y-13811580D01*
X-4392577Y-13809632D01*
X-4777514Y-13676323D01*
X-5088739Y-13568542D01*
X-5094788Y-13566272D01*
X-5777676Y-13289810D01*
X-5783602Y-13287232D01*
X-6451415Y-12976124D01*
X-6457200Y-12973246D01*
X-7108177Y-12628315D01*
X-7113808Y-12625144D01*
X-7746253Y-12247287D01*
X-7751713Y-12243832D01*
X-8363959Y-11834046D01*
X-8369235Y-11830315D01*
X-8710801Y-11575407D01*
X-8959662Y-11389684D01*
X-8964731Y-11385695D01*
X-8964734Y-11385692D01*
X-9531795Y-10915369D01*
X-9536661Y-10911118D01*
X-10078871Y-10412336D01*
X-10083513Y-10407840D01*
X-10238352Y-10250000D01*
X-4513307Y-10250000D01*
X-4494115Y-10469371D01*
X-4437120Y-10682076D01*
X-4434795Y-10687061D01*
X-4346382Y-10876666D01*
X-4346379Y-10876671D01*
X-4344056Y-10881653D01*
X-4340900Y-10886160D01*
X-4340899Y-10886162D01*
X-4323424Y-10911118D01*
X-4217749Y-11062038D01*
X-4062038Y-11217749D01*
X-3881654Y-11344056D01*
X-3682076Y-11437120D01*
X-3469371Y-11494115D01*
X-3250000Y-11513307D01*
X-3030629Y-11494115D01*
X-2817924Y-11437120D01*
X-2618346Y-11344056D01*
X-2437962Y-11217749D01*
X-2282251Y-11062038D01*
X-2176575Y-10911118D01*
X-2159101Y-10886162D01*
X-2159100Y-10886160D01*
X-2155944Y-10881653D01*
X-2153621Y-10876671D01*
X-2153618Y-10876666D01*
X-2065205Y-10687061D01*
X-2062880Y-10682076D01*
X-2005885Y-10469371D01*
X-1986693Y-10250000D01*
X1986693Y-10250000D01*
X2005885Y-10469371D01*
X2062880Y-10682076D01*
X2065205Y-10687061D01*
X2153618Y-10876666D01*
X2153621Y-10876671D01*
X2155944Y-10881653D01*
X2159100Y-10886160D01*
X2159101Y-10886162D01*
X2176576Y-10911118D01*
X2282251Y-11062038D01*
X2437962Y-11217749D01*
X2618346Y-11344056D01*
X2817924Y-11437120D01*
X3030629Y-11494115D01*
X3250000Y-11513307D01*
X3469371Y-11494115D01*
X3682076Y-11437120D01*
X3881654Y-11344056D01*
X4062038Y-11217749D01*
X4217749Y-11062038D01*
X4323425Y-10911118D01*
X4340899Y-10886162D01*
X4340900Y-10886160D01*
X4344056Y-10881653D01*
X4346379Y-10876671D01*
X4346382Y-10876666D01*
X4434795Y-10687061D01*
X4437120Y-10682076D01*
X4494115Y-10469371D01*
X4513307Y-10250000D01*
X4494115Y-10030629D01*
X4437120Y-9817924D01*
X4393585Y-9724562D01*
X4346382Y-9623334D01*
X4346379Y-9623329D01*
X4344056Y-9618347D01*
X4217749Y-9437962D01*
X4062038Y-9282251D01*
X3881654Y-9155944D01*
X3682076Y-9062880D01*
X3469371Y-9005885D01*
X3250000Y-8986693D01*
X3030629Y-9005885D01*
X2817924Y-9062880D01*
X2724562Y-9106415D01*
X2623334Y-9153618D01*
X2623329Y-9153621D01*
X2618347Y-9155944D01*
X2613840Y-9159100D01*
X2613838Y-9159101D01*
X2442473Y-9279092D01*
X2442470Y-9279094D01*
X2437962Y-9282251D01*
X2282251Y-9437962D01*
X2155944Y-9618347D01*
X2153621Y-9623329D01*
X2153618Y-9623334D01*
X2106415Y-9724562D01*
X2062880Y-9817924D01*
X2005885Y-10030629D01*
X1986693Y-10250000D01*
X-1986693Y-10250000D01*
X-2005885Y-10030629D01*
X-2062880Y-9817924D01*
X-2106415Y-9724562D01*
X-2153618Y-9623334D01*
X-2153621Y-9623329D01*
X-2155944Y-9618347D01*
X-2282251Y-9437962D01*
X-2437962Y-9282251D01*
X-2618346Y-9155944D01*
X-2817924Y-9062880D01*
X-3030629Y-9005885D01*
X-3250000Y-8986693D01*
X-3469371Y-9005885D01*
X-3682076Y-9062880D01*
X-3775438Y-9106415D01*
X-3876666Y-9153618D01*
X-3876671Y-9153621D01*
X-3881653Y-9155944D01*
X-3886160Y-9159100D01*
X-3886162Y-9159101D01*
X-4057527Y-9279092D01*
X-4057530Y-9279094D01*
X-4062038Y-9282251D01*
X-4217749Y-9437962D01*
X-4344056Y-9618347D01*
X-4346379Y-9623329D01*
X-4346382Y-9623334D01*
X-4393585Y-9724562D01*
X-4437120Y-9817924D01*
X-4494115Y-10030629D01*
X-4513307Y-10250000D01*
X-10238352Y-10250000D01*
X-10599415Y-9881940D01*
X-10603821Y-9877213D01*
X-11092110Y-9325526D01*
X-11096267Y-9320579D01*
X-11129353Y-9279092D01*
X-11555627Y-8744587D01*
X-11559519Y-8739441D01*
X-11599448Y-8683738D01*
X-11988728Y-8140680D01*
X-11992357Y-8135334D01*
X-12390321Y-7515332D01*
X-12393671Y-7509806D01*
X-12508609Y-7308759D01*
X-12759321Y-6870222D01*
X-12762381Y-6864536D01*
X-12838556Y-6713852D01*
X-13094769Y-6207032D01*
X-13097529Y-6201205D01*
X-13101198Y-6192916D01*
X-13327312Y-5682163D01*
X-13395754Y-5527563D01*
X-13398218Y-5521590D01*
X-13409436Y-5492275D01*
X-13464659Y-5347966D01*
X-10831743Y-5347966D01*
X-10801435Y-5482446D01*
X-10798355Y-5492275D01*
X-10718230Y-5689603D01*
X-10713587Y-5698794D01*
X-10602306Y-5880388D01*
X-10596223Y-5888699D01*
X-10456787Y-6049667D01*
X-10449420Y-6056883D01*
X-10285566Y-6192916D01*
X-10277119Y-6198831D01*
X-10093244Y-6306279D01*
X-10083958Y-6310729D01*
X-9884999Y-6386703D01*
X-9875101Y-6389579D01*
X-9771750Y-6410606D01*
X-9757701Y-6409410D01*
X-9754000Y-6399065D01*
X-9754000Y-6398517D01*
X-9246000Y-6398517D01*
X-9241936Y-6412359D01*
X-9228522Y-6414393D01*
X-9221816Y-6413534D01*
X-9211738Y-6411392D01*
X-9007745Y-6350191D01*
X-8998158Y-6346433D01*
X-8806905Y-6252739D01*
X-8798055Y-6247464D01*
X-8777314Y-6232670D01*
X-7192840Y-6232670D01*
X-7187113Y-6240320D01*
X-7015958Y-6345205D01*
X-7007163Y-6349687D01*
X-6797012Y-6436734D01*
X-6787627Y-6439783D01*
X-6566446Y-6492885D01*
X-6556699Y-6494428D01*
X-6329930Y-6512275D01*
X-6320070Y-6512275D01*
X-6093301Y-6494428D01*
X-6083554Y-6492885D01*
X-5862373Y-6439783D01*
X-5852988Y-6436734D01*
X-5642837Y-6349687D01*
X-5634042Y-6345205D01*
X-5466555Y-6242568D01*
X-5457093Y-6232110D01*
X-5460876Y-6223334D01*
X-6312188Y-5372022D01*
X-6326132Y-5364408D01*
X-6327965Y-5364539D01*
X-6334580Y-5368790D01*
X-7186080Y-6220290D01*
X-7192840Y-6232670D01*
X-8777314Y-6232670D01*
X-8624672Y-6123792D01*
X-8616800Y-6117139D01*
X-8465948Y-5966812D01*
X-8459270Y-5958965D01*
X-8334997Y-5786020D01*
X-8329687Y-5777183D01*
X-8235330Y-5586267D01*
X-8231531Y-5576672D01*
X-8169623Y-5372910D01*
X-8167445Y-5362837D01*
X-8166014Y-5351962D01*
X-8168225Y-5337778D01*
X-8181383Y-5334000D01*
X-9227885Y-5334000D01*
X-9243124Y-5338475D01*
X-9244329Y-5339865D01*
X-9246000Y-5347548D01*
X-9246000Y-6398517D01*
X-9754000Y-6398517D01*
X-9754000Y-5352115D01*
X-9758475Y-5336876D01*
X-9759865Y-5335671D01*
X-9767548Y-5334000D01*
X-10816775Y-5334000D01*
X-10830306Y-5337973D01*
X-10831743Y-5347966D01*
X-13464659Y-5347966D01*
X-13595931Y-5004930D01*
X-7837275Y-5004930D01*
X-7819428Y-5231699D01*
X-7817885Y-5241446D01*
X-7764783Y-5462627D01*
X-7761734Y-5472012D01*
X-7674687Y-5682163D01*
X-7670205Y-5690958D01*
X-7567568Y-5858445D01*
X-7557110Y-5867907D01*
X-7548334Y-5864124D01*
X-6697022Y-5012812D01*
X-6690644Y-5001132D01*
X-5960592Y-5001132D01*
X-5960461Y-5002965D01*
X-5956210Y-5009580D01*
X-5104710Y-5861080D01*
X-5092330Y-5867840D01*
X-5084680Y-5862113D01*
X-4979795Y-5690958D01*
X-4975313Y-5682163D01*
X-4888266Y-5472012D01*
X-4885217Y-5462627D01*
X-4832115Y-5241446D01*
X-4830572Y-5231699D01*
X-4812725Y-5004930D01*
X-4812725Y-4995070D01*
X-4830572Y-4768301D01*
X-4832115Y-4758554D01*
X-4885217Y-4537373D01*
X-4888266Y-4527988D01*
X-4975313Y-4317837D01*
X-4979795Y-4309042D01*
X-5082432Y-4141555D01*
X-5092890Y-4132093D01*
X-5101666Y-4135876D01*
X-5952978Y-4987188D01*
X-5960592Y-5001132D01*
X-6690644Y-5001132D01*
X-6689408Y-4998868D01*
X-6689539Y-4997035D01*
X-6693790Y-4990420D01*
X-7545290Y-4138920D01*
X-7557670Y-4132160D01*
X-7565320Y-4137887D01*
X-7670205Y-4309042D01*
X-7674687Y-4317837D01*
X-7761734Y-4527988D01*
X-7764783Y-4537373D01*
X-7817885Y-4758554D01*
X-7819428Y-4768301D01*
X-7837275Y-4995070D01*
X-7837275Y-5004930D01*
X-13595931Y-5004930D01*
X-13646457Y-4872896D01*
X-13652619Y-4851090D01*
X-13654040Y-4843513D01*
X-13655695Y-4834687D01*
X-13661082Y-4824079D01*
X-13669885Y-4801658D01*
X-13673151Y-4790229D01*
X-13696256Y-4753611D01*
X-13702032Y-4743436D01*
X-13717578Y-4712820D01*
X-13717580Y-4712817D01*
X-13721644Y-4704814D01*
X-13729789Y-4696147D01*
X-13744530Y-4677100D01*
X-13750876Y-4667042D01*
X-13759867Y-4659101D01*
X-13783334Y-4638375D01*
X-13791741Y-4630224D01*
X-13815244Y-4605216D01*
X-13821394Y-4598672D01*
X-13829129Y-4594120D01*
X-13829131Y-4594118D01*
X-13831638Y-4592643D01*
X-13851133Y-4578498D01*
X-13860051Y-4570622D01*
X-13879572Y-4561457D01*
X-13899250Y-4552218D01*
X-13909611Y-4546752D01*
X-13939190Y-4529343D01*
X-13946924Y-4524791D01*
X-13955624Y-4522593D01*
X-13955626Y-4522592D01*
X-13958457Y-4521877D01*
X-13981133Y-4513774D01*
X-13991900Y-4508719D01*
X-14000770Y-4507338D01*
X-14000773Y-4507337D01*
X-14025038Y-4503559D01*
X-14034693Y-4502056D01*
X-14046159Y-4499720D01*
X-14088144Y-4489113D01*
X-14097114Y-4489445D01*
X-14097115Y-4489445D01*
X-14150283Y-4491414D01*
X-14154946Y-4491500D01*
X-19365500Y-4491500D01*
X-19433621Y-4471498D01*
X-19480114Y-4417842D01*
X-19491500Y-4365500D01*
X-19491500Y-2506695D01*
X-10862749Y-2506695D01*
X-10862452Y-2511848D01*
X-10862452Y-2511851D01*
X-10856989Y-2606590D01*
X-10849890Y-2729715D01*
X-10848753Y-2734761D01*
X-10848752Y-2734767D01*
X-10833194Y-2803802D01*
X-10800778Y-2947639D01*
X-10716734Y-3154616D01*
X-10600013Y-3345088D01*
X-10453750Y-3513938D01*
X-10281874Y-3656632D01*
X-10234481Y-3684326D01*
X-10208045Y-3699774D01*
X-10159321Y-3751412D01*
X-10146250Y-3821195D01*
X-10172981Y-3886967D01*
X-10213438Y-3920327D01*
X-10221543Y-3924546D01*
X-10230262Y-3930036D01*
X-10400567Y-4057905D01*
X-10408274Y-4064748D01*
X-10555410Y-4218717D01*
X-10561896Y-4226727D01*
X-10681902Y-4402649D01*
X-10687000Y-4411623D01*
X-10776662Y-4604783D01*
X-10780225Y-4614470D01*
X-10835611Y-4814183D01*
X-10834088Y-4822607D01*
X-10821708Y-4826000D01*
X-8181656Y-4826000D01*
X-8168125Y-4822027D01*
X-8166820Y-4812947D01*
X-8208786Y-4645875D01*
X-8212106Y-4636124D01*
X-8297028Y-4440814D01*
X-8301895Y-4431739D01*
X-8417574Y-4252926D01*
X-8423864Y-4244757D01*
X-8567194Y-4087240D01*
X-8574727Y-4080215D01*
X-8741861Y-3948222D01*
X-8750444Y-3942520D01*
X-8787398Y-3922120D01*
X-8837369Y-3871687D01*
X-8852141Y-3802245D01*
X-8839147Y-3767890D01*
X-7192907Y-3767890D01*
X-7189124Y-3776666D01*
X-6337812Y-4627978D01*
X-6323868Y-4635592D01*
X-6322035Y-4635461D01*
X-6315420Y-4631210D01*
X-5463920Y-3779710D01*
X-5457160Y-3767330D01*
X-5462887Y-3759680D01*
X-5634042Y-3654795D01*
X-5642837Y-3650313D01*
X-5852988Y-3563266D01*
X-5862373Y-3560217D01*
X-6083554Y-3507115D01*
X-6093301Y-3505572D01*
X-6320070Y-3487725D01*
X-6329930Y-3487725D01*
X-6556699Y-3505572D01*
X-6566446Y-3507115D01*
X-6787627Y-3560217D01*
X-6797012Y-3563266D01*
X-7007163Y-3650313D01*
X-7015958Y-3654795D01*
X-7183445Y-3757432D01*
X-7192907Y-3767890D01*
X-8839147Y-3767890D01*
X-8827025Y-3735839D01*
X-8799673Y-3709232D01*
X-8764756Y-3684326D01*
X-8620140Y-3581173D01*
X-8599110Y-3560217D01*
X-8465565Y-3427137D01*
X-8461904Y-3423489D01*
X-8402406Y-3340689D01*
X-8334565Y-3246277D01*
X-8331547Y-3242077D01*
X-8300461Y-3179180D01*
X-8234864Y-3046453D01*
X-8234863Y-3046451D01*
X-8232570Y-3041811D01*
X-8167630Y-2828069D01*
X-8138471Y-2606590D01*
X-8137773Y-2578039D01*
X-8136926Y-2543365D01*
X-8136926Y-2543361D01*
X-8136844Y-2540000D01*
X-8155148Y-2317361D01*
X-8209569Y-2100702D01*
X-8298646Y-1895840D01*
X-8419986Y-1708277D01*
X-8570330Y-1543051D01*
X-8574381Y-1539852D01*
X-8574385Y-1539848D01*
X-8741586Y-1407800D01*
X-8741590Y-1407798D01*
X-8745641Y-1404598D01*
X-8786947Y-1381796D01*
X-8836916Y-1331364D01*
X-8851688Y-1261921D01*
X-8826572Y-1195516D01*
X-8799220Y-1168909D01*
X-8730976Y-1120231D01*
X-8620140Y-1041173D01*
X-8461904Y-883489D01*
X-8410561Y-812038D01*
X-8334565Y-706277D01*
X-8331547Y-702077D01*
X-8296741Y-631653D01*
X-8234864Y-506453D01*
X-8234863Y-506451D01*
X-8232570Y-501811D01*
X-8167630Y-288069D01*
X-8138471Y-66590D01*
X-8136844Y0D01*
X-8155148Y222639D01*
X-8209569Y439298D01*
X-8298646Y644160D01*
X-8419986Y831723D01*
X-8570330Y996949D01*
X-8574381Y1000148D01*
X-8574385Y1000152D01*
X-8741586Y1132200D01*
X-8741590Y1132202D01*
X-8745641Y1135402D01*
X-8786947Y1158204D01*
X-8836916Y1208636D01*
X-8851688Y1278079D01*
X-8826572Y1344484D01*
X-8799220Y1371091D01*
X-8745932Y1409101D01*
X-8620140Y1498827D01*
X-8461904Y1656511D01*
X-8442104Y1684065D01*
X-8334565Y1833723D01*
X-8331547Y1837923D01*
X-8316510Y1868347D01*
X-8234864Y2033547D01*
X-8234863Y2033549D01*
X-8232570Y2038189D01*
X-8212523Y2104173D01*
X-8173584Y2163533D01*
X-8108730Y2192421D01*
X-8038554Y2181660D01*
X-8002871Y2156636D01*
X-4295405Y-1550829D01*
X-4261379Y-1613141D01*
X-4258500Y-1639924D01*
X-4258500Y-4956433D01*
X-4281287Y-5028703D01*
X-4344056Y-5118347D01*
X-4346377Y-5123325D01*
X-4346379Y-5123328D01*
X-4357921Y-5148081D01*
X-4437120Y-5317924D01*
X-4494115Y-5530629D01*
X-4513307Y-5750000D01*
X-4494115Y-5969371D01*
X-4437120Y-6182076D01*
X-4409960Y-6240320D01*
X-4346382Y-6376666D01*
X-4346379Y-6376671D01*
X-4344056Y-6381653D01*
X-4340900Y-6386160D01*
X-4340899Y-6386162D01*
X-4239327Y-6531221D01*
X-4217749Y-6562038D01*
X-4062038Y-6717749D01*
X-4057529Y-6720906D01*
X-4057527Y-6720908D01*
X-4003840Y-6758500D01*
X-3881654Y-6844056D01*
X-3682076Y-6937120D01*
X-3469371Y-6994115D01*
X-3250000Y-7013307D01*
X-3030629Y-6994115D01*
X-2817924Y-6937120D01*
X-2618346Y-6844056D01*
X-2528703Y-6781287D01*
X-2456432Y-6758500D01*
X2456432Y-6758500D01*
X2528703Y-6781287D01*
X2618346Y-6844056D01*
X2817924Y-6937120D01*
X3030629Y-6994115D01*
X3250000Y-7013307D01*
X3469371Y-6994115D01*
X3476801Y-6992124D01*
X3477767Y-6992147D01*
X3480098Y-6991736D01*
X3480181Y-6992205D01*
X3547776Y-6993816D01*
X3598502Y-7024737D01*
X5243149Y-8669384D01*
X5252251Y-8679527D01*
X5275968Y-8709025D01*
X5314450Y-8741315D01*
X5318062Y-8744467D01*
X5319888Y-8746123D01*
X5322075Y-8748310D01*
X5324458Y-8750267D01*
X5324463Y-8750272D01*
X5355268Y-8775576D01*
X5356252Y-8776393D01*
X5427474Y-8836154D01*
X5432147Y-8838723D01*
X5436262Y-8842103D01*
X5441691Y-8845014D01*
X5441694Y-8845016D01*
X5518180Y-8886028D01*
X5519338Y-8886657D01*
X5595388Y-8928465D01*
X5600787Y-8931433D01*
X5605865Y-8933044D01*
X5610563Y-8935563D01*
X5699498Y-8962753D01*
X5700702Y-8963128D01*
X5789306Y-8991235D01*
X5794597Y-8991828D01*
X5799698Y-8993388D01*
X5892311Y-9002795D01*
X5893431Y-9002915D01*
X5943227Y-9008500D01*
X5946756Y-9008500D01*
X5947739Y-9008555D01*
X5953426Y-9009003D01*
X5973683Y-9011060D01*
X5990336Y-9012752D01*
X5990339Y-9012752D01*
X5996463Y-9013374D01*
X6042112Y-9009059D01*
X6053969Y-9008500D01*
X7748157Y-9008500D01*
X7761764Y-9009237D01*
X7793262Y-9012659D01*
X7793267Y-9012659D01*
X7799388Y-9013324D01*
X7825638Y-9011027D01*
X7849388Y-9008950D01*
X7854214Y-9008621D01*
X7856686Y-9008500D01*
X7859769Y-9008500D01*
X7871925Y-9007308D01*
X7902506Y-9004310D01*
X7903819Y-9004188D01*
X7948084Y-9000315D01*
X7996413Y-8996087D01*
X8001532Y-8994600D01*
X8006833Y-8994080D01*
X8095834Y-8967209D01*
X8096967Y-8966874D01*
X8180414Y-8942630D01*
X8180418Y-8942628D01*
X8186336Y-8940909D01*
X8191068Y-8938456D01*
X8196169Y-8936916D01*
X8208360Y-8930434D01*
X8278260Y-8893269D01*
X8279426Y-8892657D01*
X8356453Y-8852729D01*
X8361926Y-8849892D01*
X8366089Y-8846569D01*
X8370796Y-8844066D01*
X8442918Y-8785245D01*
X8443774Y-8784554D01*
X8482973Y-8753262D01*
X8485477Y-8750758D01*
X8486195Y-8750116D01*
X8490528Y-8746415D01*
X8524062Y-8719065D01*
X8553288Y-8683737D01*
X8561277Y-8674958D01*
X12091116Y-5145118D01*
X12153428Y-5111092D01*
X12169227Y-5108692D01*
X12228087Y-5103543D01*
X12375859Y-5063947D01*
X12443933Y-5045707D01*
X12443935Y-5045706D01*
X12449243Y-5044284D01*
X12454225Y-5041961D01*
X12651762Y-4949849D01*
X12651767Y-4949846D01*
X12656749Y-4947523D01*
X12778497Y-4862274D01*
X12839789Y-4819357D01*
X12839792Y-4819355D01*
X12844300Y-4816198D01*
X13006198Y-4654300D01*
X13012098Y-4645875D01*
X13100124Y-4520160D01*
X13137523Y-4466749D01*
X13139846Y-4461767D01*
X13139849Y-4461762D01*
X13231961Y-4264225D01*
X13231961Y-4264224D01*
X13234284Y-4259243D01*
X13266802Y-4137887D01*
X13292119Y-4043402D01*
X13292119Y-4043400D01*
X13293543Y-4038087D01*
X13313498Y-3810000D01*
X13293543Y-3581913D01*
X13288254Y-3562175D01*
X13235707Y-3366067D01*
X13235706Y-3366065D01*
X13234284Y-3360757D01*
X13228797Y-3348990D01*
X13139849Y-3158238D01*
X13139846Y-3158233D01*
X13137523Y-3153251D01*
X13006198Y-2965700D01*
X12844300Y-2803802D01*
X12839792Y-2800645D01*
X12839789Y-2800643D01*
X12715770Y-2713804D01*
X12656749Y-2672477D01*
X12651767Y-2670154D01*
X12651762Y-2670151D01*
X12454225Y-2578039D01*
X12454224Y-2578039D01*
X12449243Y-2575716D01*
X12443935Y-2574294D01*
X12443933Y-2574293D01*
X12233402Y-2517881D01*
X12233400Y-2517881D01*
X12228087Y-2516457D01*
X12000000Y-2496502D01*
X11771913Y-2516457D01*
X11766600Y-2517881D01*
X11766598Y-2517881D01*
X11556067Y-2574293D01*
X11556065Y-2574294D01*
X11550757Y-2575716D01*
X11545776Y-2578039D01*
X11545775Y-2578039D01*
X11348238Y-2670151D01*
X11348233Y-2670154D01*
X11343251Y-2672477D01*
X11284230Y-2713804D01*
X11160211Y-2800643D01*
X11160208Y-2800645D01*
X11155700Y-2803802D01*
X10993802Y-2965700D01*
X10862477Y-3153251D01*
X10860154Y-3158233D01*
X10860151Y-3158238D01*
X10771203Y-3348990D01*
X10765716Y-3360757D01*
X10706457Y-3581913D01*
X10701308Y-3640770D01*
X10675445Y-3706888D01*
X10664882Y-3718884D01*
X7429171Y-6954595D01*
X7366859Y-6988621D01*
X7340076Y-6991500D01*
X6469924Y-6991500D01*
X6401803Y-6971498D01*
X6380829Y-6954595D01*
X6147418Y-6721184D01*
X6113392Y-6658872D01*
X6118457Y-6588057D01*
X6161004Y-6531221D01*
X6227524Y-6506410D01*
X6246399Y-6506477D01*
X6320070Y-6512275D01*
X6329930Y-6512275D01*
X6556699Y-6494428D01*
X6566446Y-6492885D01*
X6787627Y-6439783D01*
X6797012Y-6436734D01*
X7007163Y-6349687D01*
X7015958Y-6345205D01*
X7183445Y-6242568D01*
X7192907Y-6232110D01*
X7189124Y-6223334D01*
X5966922Y-5001132D01*
X6689408Y-5001132D01*
X6689539Y-5002965D01*
X6693790Y-5009580D01*
X7545290Y-5861080D01*
X7557670Y-5867840D01*
X7565320Y-5862113D01*
X7670205Y-5690958D01*
X7674687Y-5682163D01*
X7761734Y-5472012D01*
X7764783Y-5462627D01*
X7817885Y-5241446D01*
X7819428Y-5231699D01*
X7837275Y-5004930D01*
X7837275Y-4995070D01*
X7819428Y-4768301D01*
X7817885Y-4758554D01*
X7764783Y-4537373D01*
X7761734Y-4527988D01*
X7674687Y-4317837D01*
X7670205Y-4309042D01*
X7567568Y-4141555D01*
X7557110Y-4132093D01*
X7548334Y-4135876D01*
X6697022Y-4987188D01*
X6689408Y-5001132D01*
X5966922Y-5001132D01*
X5104710Y-4138920D01*
X5092330Y-4132160D01*
X5084680Y-4137887D01*
X4979795Y-4309042D01*
X4975313Y-4317837D01*
X4888266Y-4527988D01*
X4885217Y-4537373D01*
X4832115Y-4758554D01*
X4830572Y-4768301D01*
X4812725Y-4995070D01*
X4812725Y-5004930D01*
X4818523Y-5078601D01*
X4803927Y-5148081D01*
X4754084Y-5198641D01*
X4684820Y-5214227D01*
X4618124Y-5189892D01*
X4603816Y-5177582D01*
X4506855Y-5080621D01*
X4497753Y-5070478D01*
X4477897Y-5045782D01*
X4474032Y-5040975D01*
X4435578Y-5008708D01*
X4431931Y-5005528D01*
X4430119Y-5003885D01*
X4427925Y-5001691D01*
X4394651Y-4974358D01*
X4393853Y-4973696D01*
X4322526Y-4913846D01*
X4317856Y-4911278D01*
X4313739Y-4907897D01*
X4248477Y-4872904D01*
X4231914Y-4864023D01*
X4230755Y-4863394D01*
X4154619Y-4821538D01*
X4154611Y-4821535D01*
X4149213Y-4818567D01*
X4144131Y-4816955D01*
X4139437Y-4814438D01*
X4101356Y-4802795D01*
X4062447Y-4781666D01*
X4062038Y-4782251D01*
X3881654Y-4655944D01*
X3682076Y-4562880D01*
X3469371Y-4505885D01*
X3250000Y-4486693D01*
X3030629Y-4505885D01*
X2817924Y-4562880D01*
X2727134Y-4605216D01*
X2623328Y-4653621D01*
X2623325Y-4653623D01*
X2618347Y-4655944D01*
X2563105Y-4694625D01*
X2528703Y-4718713D01*
X2456433Y-4741500D01*
X-2115500Y-4741500D01*
X-2183621Y-4721498D01*
X-2230114Y-4667842D01*
X-2241500Y-4615500D01*
X-2241500Y-3767890D01*
X5457093Y-3767890D01*
X5460876Y-3776666D01*
X6312188Y-4627978D01*
X6326132Y-4635592D01*
X6327965Y-4635461D01*
X6334580Y-4631210D01*
X7186080Y-3779710D01*
X7192840Y-3767330D01*
X7187113Y-3759680D01*
X7015958Y-3654795D01*
X7007163Y-3650313D01*
X6797012Y-3563266D01*
X6787627Y-3560217D01*
X6745742Y-3550161D01*
X8044393Y-3550161D01*
X8053687Y-3562175D01*
X8094088Y-3590464D01*
X8103584Y-3595947D01*
X8293113Y-3684326D01*
X8303405Y-3688072D01*
X8505401Y-3742196D01*
X8516196Y-3744099D01*
X8724525Y-3762326D01*
X8735475Y-3762326D01*
X8943804Y-3744099D01*
X8954599Y-3742196D01*
X9156595Y-3688072D01*
X9166887Y-3684326D01*
X9356416Y-3595947D01*
X9365912Y-3590464D01*
X9407148Y-3561590D01*
X9415523Y-3551112D01*
X9408457Y-3537668D01*
X8742811Y-2872021D01*
X8728868Y-2864408D01*
X8727034Y-2864539D01*
X8720420Y-2868790D01*
X8050820Y-3538391D01*
X8044393Y-3550161D01*
X6745742Y-3550161D01*
X6566446Y-3507115D01*
X6556699Y-3505572D01*
X6329930Y-3487725D01*
X6320070Y-3487725D01*
X6093301Y-3505572D01*
X6083554Y-3507115D01*
X5862373Y-3560217D01*
X5852988Y-3563266D01*
X5642837Y-3650313D01*
X5634042Y-3654795D01*
X5466555Y-3757432D01*
X5457093Y-3767890D01*
X-2241500Y-3767890D01*
X-2241500Y-2505475D01*
X7467674Y-2505475D01*
X7485901Y-2713804D01*
X7487804Y-2724599D01*
X7541928Y-2926595D01*
X7545674Y-2936887D01*
X7634054Y-3126417D01*
X7639534Y-3135907D01*
X7668411Y-3177149D01*
X7678887Y-3185523D01*
X7692334Y-3178455D01*
X8357979Y-2512811D01*
X8364356Y-2501132D01*
X9094408Y-2501132D01*
X9094539Y-2502966D01*
X9098790Y-2509580D01*
X9768391Y-3179180D01*
X9780161Y-3185607D01*
X9792176Y-3176311D01*
X9820466Y-3135907D01*
X9825946Y-3126417D01*
X9914326Y-2936887D01*
X9918072Y-2926595D01*
X9972196Y-2724599D01*
X9974099Y-2713804D01*
X9992326Y-2505475D01*
X9992326Y-2494525D01*
X9974099Y-2286196D01*
X9972196Y-2275401D01*
X9918072Y-2073405D01*
X9914326Y-2063113D01*
X9825946Y-1873583D01*
X9820466Y-1864093D01*
X9791589Y-1822851D01*
X9781113Y-1814477D01*
X9767666Y-1821545D01*
X9102021Y-2487189D01*
X9094408Y-2501132D01*
X8364356Y-2501132D01*
X8365592Y-2498868D01*
X8365461Y-2497034D01*
X8361210Y-2490420D01*
X7691609Y-1820820D01*
X7679839Y-1814393D01*
X7667824Y-1823689D01*
X7639534Y-1864093D01*
X7634054Y-1873583D01*
X7545674Y-2063113D01*
X7541928Y-2073405D01*
X7487804Y-2275401D01*
X7485901Y-2286196D01*
X7467674Y-2494525D01*
X7467674Y-2505475D01*
X-2241500Y-2505475D01*
X-2241500Y-1231843D01*
X-2240763Y-1218236D01*
X-2237341Y-1186738D01*
X-2237341Y-1186733D01*
X-2236676Y-1180612D01*
X-2241050Y-1130612D01*
X-2241379Y-1125786D01*
X-2241500Y-1123314D01*
X-2241500Y-1120231D01*
X-2242674Y-1108262D01*
X-2245690Y-1077494D01*
X-2245812Y-1076181D01*
X-2253377Y-989718D01*
X-2253913Y-983587D01*
X-2255400Y-978468D01*
X-2255920Y-973167D01*
X-2282791Y-884166D01*
X-2283126Y-883033D01*
X-2307370Y-799586D01*
X-2307372Y-799582D01*
X-2309091Y-793664D01*
X-2311544Y-788932D01*
X-2313084Y-783831D01*
X-2356731Y-701740D01*
X-2357343Y-700574D01*
X-2397271Y-623547D01*
X-2400108Y-618074D01*
X-2403431Y-613911D01*
X-2405934Y-609204D01*
X-2464739Y-537102D01*
X-2465567Y-536075D01*
X-2494531Y-499792D01*
X-2494536Y-499787D01*
X-2496738Y-497028D01*
X-2499239Y-494527D01*
X-2499881Y-493809D01*
X-2503594Y-489461D01*
X-2511358Y-479941D01*
X-2530935Y-455938D01*
X-2535677Y-452015D01*
X-2535679Y-452013D01*
X-2566273Y-426703D01*
X-2575053Y-418713D01*
X-2993766Y0D01*
X7466693Y0D01*
X7485885Y-219371D01*
X7542880Y-432076D01*
X7586415Y-525438D01*
X7633618Y-626666D01*
X7633621Y-626671D01*
X7635944Y-631653D01*
X7639100Y-636160D01*
X7639101Y-636162D01*
X7757385Y-805088D01*
X7762251Y-812038D01*
X7917962Y-967749D01*
X7922471Y-970906D01*
X7922473Y-970908D01*
X7997241Y-1023261D01*
X8098346Y-1094056D01*
X8103328Y-1096379D01*
X8103333Y-1096382D01*
X8188469Y-1136081D01*
X8241754Y-1182998D01*
X8261215Y-1251276D01*
X8240673Y-1319235D01*
X8188469Y-1364471D01*
X8103583Y-1404054D01*
X8094093Y-1409534D01*
X8052851Y-1438411D01*
X8044477Y-1448887D01*
X8051545Y-1462334D01*
X8717189Y-2127979D01*
X8731132Y-2135592D01*
X8732966Y-2135461D01*
X8739580Y-2131210D01*
X9409180Y-1461609D01*
X9415607Y-1449839D01*
X9406313Y-1437825D01*
X9365912Y-1409536D01*
X9356416Y-1404053D01*
X9271531Y-1364471D01*
X9218246Y-1317554D01*
X9198785Y-1249276D01*
X9219327Y-1181316D01*
X9271531Y-1136081D01*
X9356667Y-1096382D01*
X9356672Y-1096379D01*
X9361654Y-1094056D01*
X9462759Y-1023261D01*
X9537527Y-970908D01*
X9537529Y-970906D01*
X9542038Y-967749D01*
X9697749Y-812038D01*
X9702616Y-805088D01*
X9820899Y-636162D01*
X9820900Y-636160D01*
X9824056Y-631653D01*
X9826379Y-626671D01*
X9826382Y-626666D01*
X9873585Y-525438D01*
X9917120Y-432076D01*
X9974115Y-219371D01*
X9993307Y0D01*
X9974115Y219371D01*
X9917120Y432076D01*
X9873585Y525438D01*
X9826382Y626666D01*
X9826379Y626671D01*
X9824056Y631653D01*
X9820899Y636162D01*
X9700908Y807527D01*
X9700906Y807530D01*
X9697749Y812038D01*
X9542038Y967749D01*
X9505791Y993130D01*
X9462759Y1023261D01*
X9361654Y1094056D01*
X9356666Y1096382D01*
X9356663Y1096384D01*
X9272123Y1135805D01*
X9218837Y1182722D01*
X9199376Y1250999D01*
X9219918Y1318959D01*
X9272123Y1364195D01*
X9356663Y1403616D01*
X9356669Y1403620D01*
X9361654Y1405944D01*
X9542038Y1532251D01*
X9697749Y1687962D01*
X9824056Y1868347D01*
X9826379Y1873329D01*
X9826382Y1873334D01*
X9873585Y1974562D01*
X9917120Y2067924D01*
X9974115Y2280629D01*
X9974594Y2286106D01*
X9974600Y2286138D01*
X10009591Y2353357D01*
X10420829Y2764595D01*
X10483141Y2798621D01*
X10509924Y2801500D01*
X11119260Y2801500D01*
X11191531Y2778713D01*
X11343251Y2672477D01*
X11348233Y2670154D01*
X11348238Y2670151D01*
X11545775Y2578039D01*
X11550757Y2575716D01*
X11556065Y2574294D01*
X11556067Y2574293D01*
X11766598Y2517881D01*
X11766600Y2517881D01*
X11771913Y2516457D01*
X12000000Y2496502D01*
X12228087Y2516457D01*
X12233400Y2517881D01*
X12233402Y2517881D01*
X12443933Y2574293D01*
X12443935Y2574294D01*
X12449243Y2575716D01*
X12454225Y2578039D01*
X12651762Y2670151D01*
X12651767Y2670154D01*
X12656749Y2672477D01*
X12788307Y2764595D01*
X12839789Y2800643D01*
X12839792Y2800645D01*
X12844300Y2803802D01*
X13006198Y2965700D01*
X13034209Y3005703D01*
X13118908Y3126666D01*
X13137523Y3153251D01*
X13139846Y3158233D01*
X13139849Y3158238D01*
X13231961Y3355775D01*
X13231961Y3355776D01*
X13234284Y3360757D01*
X13243082Y3393589D01*
X13292119Y3576598D01*
X13292119Y3576600D01*
X13293543Y3581913D01*
X13313498Y3810000D01*
X13293543Y4038087D01*
X13267340Y4135876D01*
X13235707Y4253933D01*
X13235706Y4253935D01*
X13234284Y4259243D01*
X13231961Y4264225D01*
X13139849Y4461762D01*
X13139846Y4461767D01*
X13137523Y4466749D01*
X13048341Y4594114D01*
X13009357Y4649789D01*
X13009355Y4649792D01*
X13006198Y4654300D01*
X12844300Y4816198D01*
X12839792Y4819355D01*
X12839789Y4819357D01*
X12761611Y4874098D01*
X12656749Y4947523D01*
X12651767Y4949846D01*
X12651762Y4949849D01*
X12454225Y5041961D01*
X12454224Y5041961D01*
X12449243Y5044284D01*
X12443935Y5045706D01*
X12443933Y5045707D01*
X12233402Y5102119D01*
X12233400Y5102119D01*
X12228087Y5103543D01*
X12000000Y5123498D01*
X11771913Y5103543D01*
X11766600Y5102119D01*
X11766598Y5102119D01*
X11556067Y5045707D01*
X11556065Y5045706D01*
X11550757Y5044284D01*
X11545776Y5041961D01*
X11545775Y5041961D01*
X11348238Y4949849D01*
X11348233Y4949846D01*
X11343251Y4947523D01*
X11213330Y4856551D01*
X11191531Y4841287D01*
X11119260Y4818500D01*
X10101843Y4818500D01*
X10088236Y4819237D01*
X10056738Y4822659D01*
X10056733Y4822659D01*
X10050612Y4823324D01*
X10024362Y4821027D01*
X10000612Y4818950D01*
X9995786Y4818621D01*
X9993314Y4818500D01*
X9990231Y4818500D01*
X9978262Y4817326D01*
X9947494Y4814310D01*
X9946181Y4814188D01*
X9901916Y4810315D01*
X9853587Y4806087D01*
X9848468Y4804600D01*
X9843167Y4804080D01*
X9754166Y4777209D01*
X9753033Y4776874D01*
X9669586Y4752630D01*
X9669582Y4752628D01*
X9663664Y4750909D01*
X9658932Y4748456D01*
X9653831Y4746916D01*
X9648388Y4744022D01*
X9571740Y4703269D01*
X9570574Y4702657D01*
X9493547Y4662729D01*
X9488074Y4659892D01*
X9483911Y4656569D01*
X9479204Y4654066D01*
X9474429Y4650172D01*
X9474428Y4650171D01*
X9407102Y4595261D01*
X9406075Y4594433D01*
X9369792Y4565469D01*
X9369787Y4565464D01*
X9367028Y4563262D01*
X9364527Y4560761D01*
X9363809Y4560119D01*
X9359461Y4556406D01*
X9325938Y4529065D01*
X9322015Y4524323D01*
X9322013Y4524321D01*
X9296703Y4493727D01*
X9288713Y4484947D01*
X8583357Y3779591D01*
X8516138Y3744600D01*
X8516105Y3744594D01*
X8510629Y3744115D01*
X8297924Y3687120D01*
X8228603Y3654795D01*
X8103334Y3596382D01*
X8103329Y3596379D01*
X8098347Y3594056D01*
X8093840Y3590900D01*
X8093838Y3590899D01*
X7922473Y3470908D01*
X7922470Y3470906D01*
X7917962Y3467749D01*
X7762251Y3312038D01*
X7759094Y3307530D01*
X7759092Y3307527D01*
X7639101Y3136162D01*
X7635944Y3131653D01*
X7633621Y3126671D01*
X7633618Y3126666D01*
X7586415Y3025438D01*
X7542880Y2932076D01*
X7485885Y2719371D01*
X7466693Y2500000D01*
X7485885Y2280629D01*
X7542880Y2067924D01*
X7586415Y1974562D01*
X7633618Y1873334D01*
X7633621Y1873329D01*
X7635944Y1868347D01*
X7762251Y1687962D01*
X7917962Y1532251D01*
X8098346Y1405944D01*
X8103331Y1403620D01*
X8103337Y1403616D01*
X8187877Y1364195D01*
X8241163Y1317278D01*
X8260624Y1249001D01*
X8240082Y1181041D01*
X8187878Y1135805D01*
X8103334Y1096382D01*
X8103329Y1096379D01*
X8098347Y1094056D01*
X8093840Y1090900D01*
X8093838Y1090899D01*
X7922473Y970908D01*
X7922470Y970906D01*
X7917962Y967749D01*
X7762251Y812038D01*
X7759094Y807530D01*
X7759092Y807527D01*
X7639101Y636162D01*
X7635944Y631653D01*
X7633621Y626671D01*
X7633618Y626666D01*
X7586415Y525438D01*
X7542880Y432076D01*
X7485885Y219371D01*
X7466693Y0D01*
X-2993766Y0D01*
X-6276451Y3282685D01*
X-6310477Y3344997D01*
X-6305412Y3415812D01*
X-6262865Y3472648D01*
X-6197241Y3497392D01*
X-6093301Y3505572D01*
X-6083554Y3507115D01*
X-5862373Y3560217D01*
X-5852988Y3563266D01*
X-5642837Y3650313D01*
X-5634042Y3654795D01*
X-5466555Y3757432D01*
X-5457600Y3767330D01*
X5457160Y3767330D01*
X5462887Y3759680D01*
X5634042Y3654795D01*
X5642837Y3650313D01*
X5852988Y3563266D01*
X5862373Y3560217D01*
X6083554Y3507115D01*
X6093301Y3505572D01*
X6320070Y3487725D01*
X6329930Y3487725D01*
X6556699Y3505572D01*
X6566446Y3507115D01*
X6787627Y3560217D01*
X6797012Y3563266D01*
X7007163Y3650313D01*
X7015958Y3654795D01*
X7183445Y3757432D01*
X7192907Y3767890D01*
X7189124Y3776666D01*
X6337812Y4627978D01*
X6323868Y4635592D01*
X6322035Y4635461D01*
X6315420Y4631210D01*
X5463920Y3779710D01*
X5457160Y3767330D01*
X-5457600Y3767330D01*
X-5457093Y3767890D01*
X-5460876Y3776666D01*
X-6683078Y4998868D01*
X-5960592Y4998868D01*
X-5960461Y4997035D01*
X-5956210Y4990420D01*
X-5104710Y4138920D01*
X-5092330Y4132160D01*
X-5084680Y4137887D01*
X-4979795Y4309042D01*
X-4975313Y4317837D01*
X-4888266Y4527988D01*
X-4885217Y4537373D01*
X-4832115Y4758554D01*
X-4830572Y4768301D01*
X-4812725Y4995070D01*
X4812725Y4995070D01*
X4830572Y4768301D01*
X4832115Y4758554D01*
X4885217Y4537373D01*
X4888266Y4527988D01*
X4975313Y4317837D01*
X4979795Y4309042D01*
X5082432Y4141555D01*
X5092890Y4132093D01*
X5101666Y4135876D01*
X5952978Y4987188D01*
X5959356Y4998868D01*
X6689408Y4998868D01*
X6689539Y4997035D01*
X6693790Y4990420D01*
X7545290Y4138920D01*
X7557670Y4132160D01*
X7565320Y4137887D01*
X7670205Y4309042D01*
X7674687Y4317837D01*
X7761734Y4527988D01*
X7764783Y4537373D01*
X7817885Y4758554D01*
X7819428Y4768301D01*
X7837275Y4995070D01*
X7837275Y5004930D01*
X7819428Y5231699D01*
X7817885Y5241446D01*
X7764783Y5462627D01*
X7761734Y5472012D01*
X7674687Y5682163D01*
X7670205Y5690958D01*
X7567568Y5858445D01*
X7557110Y5867907D01*
X7548334Y5864124D01*
X6697022Y5012812D01*
X6689408Y4998868D01*
X5959356Y4998868D01*
X5960592Y5001132D01*
X5960461Y5002965D01*
X5956210Y5009580D01*
X5104710Y5861080D01*
X5092330Y5867840D01*
X5084680Y5862113D01*
X4979795Y5690958D01*
X4975313Y5682163D01*
X4888266Y5472012D01*
X4885217Y5462627D01*
X4832115Y5241446D01*
X4830572Y5231699D01*
X4812725Y5004930D01*
X4812725Y4995070D01*
X-4812725Y4995070D01*
X-4812725Y5004930D01*
X-4830572Y5231699D01*
X-4832115Y5241446D01*
X-4885217Y5462627D01*
X-4888266Y5472012D01*
X-4975313Y5682163D01*
X-4979795Y5690958D01*
X-5082432Y5858445D01*
X-5092890Y5867907D01*
X-5101666Y5864124D01*
X-5952978Y5012812D01*
X-5960592Y4998868D01*
X-6683078Y4998868D01*
X-7545290Y5861080D01*
X-7557670Y5867840D01*
X-7565320Y5862113D01*
X-7670205Y5690958D01*
X-7674687Y5682163D01*
X-7761734Y5472012D01*
X-7764783Y5462627D01*
X-7817885Y5241446D01*
X-7819428Y5231699D01*
X-7827608Y5127759D01*
X-7852893Y5061417D01*
X-7910031Y5019277D01*
X-7980881Y5014718D01*
X-8042315Y5048549D01*
X-8104595Y5110829D01*
X-8138621Y5173141D01*
X-8141500Y5199924D01*
X-8141500Y5978134D01*
X-8148255Y6040316D01*
X-8151027Y6047712D01*
X-8151029Y6047718D01*
X-8173001Y6106327D01*
X-8178184Y6177134D01*
X-8148224Y6232110D01*
X-7192907Y6232110D01*
X-7189124Y6223334D01*
X-6337812Y5372022D01*
X-6323868Y5364408D01*
X-6322035Y5364539D01*
X-6315420Y5368790D01*
X-5463920Y6220290D01*
X-5457466Y6232110D01*
X5457093Y6232110D01*
X5460876Y6223334D01*
X6312188Y5372022D01*
X6326132Y5364408D01*
X6327965Y5364539D01*
X6334580Y5368790D01*
X7186080Y6220290D01*
X7192840Y6232670D01*
X7187113Y6240320D01*
X7015958Y6345205D01*
X7007163Y6349687D01*
X6797012Y6436734D01*
X6787627Y6439783D01*
X6566446Y6492885D01*
X6556699Y6494428D01*
X6329930Y6512275D01*
X6320070Y6512275D01*
X6093301Y6494428D01*
X6083554Y6492885D01*
X5862373Y6439783D01*
X5852988Y6436734D01*
X5642837Y6349687D01*
X5634042Y6345205D01*
X5466555Y6242568D01*
X5457093Y6232110D01*
X-5457466Y6232110D01*
X-5457160Y6232670D01*
X-5462887Y6240320D01*
X-5634042Y6345205D01*
X-5642837Y6349687D01*
X-5852988Y6436734D01*
X-5862373Y6439783D01*
X-6083554Y6492885D01*
X-6093301Y6494428D01*
X-6320070Y6512275D01*
X-6329930Y6512275D01*
X-6556699Y6494428D01*
X-6566446Y6492885D01*
X-6787627Y6439783D01*
X-6797012Y6436734D01*
X-7007163Y6349687D01*
X-7015958Y6345205D01*
X-7183445Y6242568D01*
X-7192907Y6232110D01*
X-8148224Y6232110D01*
X-8144114Y6239651D01*
X-6703927Y7679839D01*
X-3185607Y7679839D01*
X-3176313Y7667825D01*
X-3135912Y7639536D01*
X-3126416Y7634053D01*
X-2936887Y7545674D01*
X-2926595Y7541928D01*
X-2724599Y7487804D01*
X-2713804Y7485901D01*
X-2505475Y7467674D01*
X-2494525Y7467674D01*
X-2286196Y7485901D01*
X-2275401Y7487804D01*
X-2073405Y7541928D01*
X-2063113Y7545674D01*
X-1873584Y7634053D01*
X-1864088Y7639536D01*
X-1822852Y7668410D01*
X-1814477Y7678888D01*
X-1821543Y7692332D01*
X-2487189Y8357979D01*
X-2501132Y8365592D01*
X-2502966Y8365461D01*
X-2509580Y8361210D01*
X-3179180Y7691609D01*
X-3185607Y7679839D01*
X-6703927Y7679839D01*
X-5659241Y8724525D01*
X-3762326Y8724525D01*
X-3744099Y8516196D01*
X-3742196Y8505401D01*
X-3688072Y8303405D01*
X-3684326Y8293113D01*
X-3595946Y8103583D01*
X-3590466Y8094093D01*
X-3561589Y8052851D01*
X-3551113Y8044477D01*
X-3537666Y8051545D01*
X-2872021Y8717189D01*
X-2865644Y8728868D01*
X-2135592Y8728868D01*
X-2135461Y8727034D01*
X-2131210Y8720420D01*
X-1461609Y8050820D01*
X-1449839Y8044393D01*
X-1437824Y8053689D01*
X-1409534Y8094093D01*
X-1404054Y8103583D01*
X-1364471Y8188470D01*
X-1317554Y8241755D01*
X-1249276Y8261216D01*
X-1181316Y8240674D01*
X-1136081Y8188470D01*
X-1096382Y8103334D01*
X-1096379Y8103329D01*
X-1094056Y8098347D01*
X-1090900Y8093840D01*
X-1090899Y8093838D01*
X-1062199Y8052851D01*
X-967749Y7917962D01*
X-812038Y7762251D01*
X-631654Y7635944D01*
X-432076Y7542880D01*
X-219371Y7485885D01*
X0Y7466693D01*
X219371Y7485885D01*
X432076Y7542880D01*
X631654Y7635944D01*
X812038Y7762251D01*
X967749Y7917962D01*
X1062200Y8052851D01*
X1090899Y8093838D01*
X1090900Y8093840D01*
X1094056Y8098347D01*
X1096379Y8103329D01*
X1096382Y8103334D01*
X1135805Y8187878D01*
X1182722Y8241163D01*
X1251000Y8260624D01*
X1318960Y8240082D01*
X1364195Y8187878D01*
X1403618Y8103334D01*
X1403621Y8103329D01*
X1405944Y8098347D01*
X1409100Y8093840D01*
X1409101Y8093838D01*
X1437801Y8052851D01*
X1532251Y7917962D01*
X1687962Y7762251D01*
X1868346Y7635944D01*
X2067924Y7542880D01*
X2280629Y7485885D01*
X2500000Y7466693D01*
X2719371Y7485885D01*
X2932076Y7542880D01*
X3131654Y7635944D01*
X3312038Y7762251D01*
X3467749Y7917962D01*
X3562200Y8052851D01*
X3590899Y8093838D01*
X3590900Y8093840D01*
X3594056Y8098347D01*
X3596379Y8103329D01*
X3596382Y8103334D01*
X3660928Y8241755D01*
X3687120Y8297924D01*
X3744115Y8510629D01*
X3744594Y8516103D01*
X3744600Y8516138D01*
X3779591Y8583357D01*
X4479379Y9283145D01*
X4489522Y9292247D01*
X4514218Y9312103D01*
X4519025Y9315968D01*
X4551292Y9354422D01*
X4554472Y9358069D01*
X4556115Y9359881D01*
X4558309Y9362075D01*
X4585642Y9395349D01*
X4586348Y9396200D01*
X4594833Y9406311D01*
X4646154Y9467474D01*
X4648722Y9472144D01*
X4652103Y9476261D01*
X4696015Y9558158D01*
X4696624Y9559280D01*
X4738466Y9635389D01*
X4738468Y9635394D01*
X4741433Y9640787D01*
X4743044Y9645865D01*
X4745563Y9650563D01*
X4772753Y9739498D01*
X4773136Y9740728D01*
X4799371Y9823430D01*
X4801235Y9829306D01*
X4801828Y9834597D01*
X4803388Y9839698D01*
X4812795Y9932311D01*
X4812915Y9933431D01*
X4818500Y9983227D01*
X4818500Y9986756D01*
X4818555Y9987739D01*
X4819004Y9993444D01*
X4820645Y10009591D01*
X4823374Y10036463D01*
X4819059Y10082112D01*
X4818500Y10093969D01*
X4818500Y11119260D01*
X4841287Y11191531D01*
X4944366Y11338743D01*
X4947523Y11343251D01*
X4949846Y11348233D01*
X4949849Y11348238D01*
X5041961Y11545775D01*
X5041961Y11545776D01*
X5044284Y11550757D01*
X5103543Y11771913D01*
X5123498Y12000000D01*
X5103543Y12228087D01*
X5102119Y12233402D01*
X5045707Y12443933D01*
X5045706Y12443935D01*
X5044284Y12449243D01*
X5041961Y12454225D01*
X4949849Y12651762D01*
X4949846Y12651767D01*
X4947523Y12656749D01*
X4816198Y12844300D01*
X4654300Y13006198D01*
X4649792Y13009355D01*
X4649789Y13009357D01*
X4571611Y13064098D01*
X4466749Y13137523D01*
X4461767Y13139846D01*
X4461762Y13139849D01*
X4264225Y13231961D01*
X4264224Y13231961D01*
X4259243Y13234284D01*
X4253935Y13235706D01*
X4253933Y13235707D01*
X4043402Y13292119D01*
X4043400Y13292119D01*
X4038087Y13293543D01*
X3810000Y13313498D01*
X3581913Y13293543D01*
X3576600Y13292119D01*
X3576598Y13292119D01*
X3366067Y13235707D01*
X3366065Y13235706D01*
X3360757Y13234284D01*
X3355776Y13231961D01*
X3355775Y13231961D01*
X3158238Y13139849D01*
X3158233Y13139846D01*
X3153251Y13137523D01*
X3048389Y13064098D01*
X2970211Y13009357D01*
X2970208Y13009355D01*
X2965700Y13006198D01*
X2803802Y12844300D01*
X2672477Y12656749D01*
X2670154Y12651767D01*
X2670151Y12651762D01*
X2578039Y12454225D01*
X2575716Y12449243D01*
X2574294Y12443935D01*
X2574293Y12443933D01*
X2517881Y12233402D01*
X2516457Y12228087D01*
X2496502Y12000000D01*
X2516457Y11771913D01*
X2575716Y11550757D01*
X2578039Y11545776D01*
X2578039Y11545775D01*
X2670151Y11348238D01*
X2670154Y11348233D01*
X2672477Y11343251D01*
X2675634Y11338743D01*
X2778713Y11191531D01*
X2801500Y11119260D01*
X2801500Y10509924D01*
X2781498Y10441803D01*
X2764595Y10420829D01*
X2353357Y10009591D01*
X2286138Y9974600D01*
X2286105Y9974594D01*
X2280629Y9974115D01*
X2067924Y9917120D01*
X1992401Y9881903D01*
X1873334Y9826382D01*
X1873329Y9826379D01*
X1868347Y9824056D01*
X1863840Y9820900D01*
X1863838Y9820899D01*
X1692473Y9700908D01*
X1692470Y9700906D01*
X1687962Y9697749D01*
X1532251Y9542038D01*
X1529094Y9537530D01*
X1529092Y9537527D01*
X1437214Y9406311D01*
X1405944Y9361653D01*
X1403621Y9356671D01*
X1403618Y9356666D01*
X1364195Y9272122D01*
X1317278Y9218837D01*
X1249000Y9199376D01*
X1181040Y9219918D01*
X1135805Y9272122D01*
X1096382Y9356666D01*
X1096379Y9356671D01*
X1094056Y9361653D01*
X1062786Y9406311D01*
X970908Y9537527D01*
X970906Y9537530D01*
X967749Y9542038D01*
X812038Y9697749D01*
X752458Y9739468D01*
X694342Y9780161D01*
X631654Y9824056D01*
X432076Y9917120D01*
X219371Y9974115D01*
X0Y9993307D01*
X-219371Y9974115D01*
X-432076Y9917120D01*
X-507599Y9881903D01*
X-626666Y9826382D01*
X-626671Y9826379D01*
X-631653Y9824056D01*
X-636160Y9820900D01*
X-636162Y9820899D01*
X-807527Y9700908D01*
X-807530Y9700906D01*
X-812038Y9697749D01*
X-967749Y9542038D01*
X-970906Y9537530D01*
X-970908Y9537527D01*
X-1062786Y9406311D01*
X-1094056Y9361653D01*
X-1096379Y9356671D01*
X-1096382Y9356666D01*
X-1136081Y9271530D01*
X-1182998Y9218245D01*
X-1251276Y9198784D01*
X-1319235Y9219326D01*
X-1364471Y9271530D01*
X-1404054Y9356417D01*
X-1409534Y9365907D01*
X-1438411Y9407149D01*
X-1448887Y9415523D01*
X-1462334Y9408455D01*
X-2127979Y8742811D01*
X-2135592Y8728868D01*
X-2865644Y8728868D01*
X-2864408Y8731132D01*
X-2864539Y8732966D01*
X-2868790Y8739580D01*
X-3538391Y9409180D01*
X-3550161Y9415607D01*
X-3562176Y9406311D01*
X-3590466Y9365907D01*
X-3595946Y9356417D01*
X-3684326Y9166887D01*
X-3688072Y9156595D01*
X-3742196Y8954599D01*
X-3744099Y8943804D01*
X-3762326Y8735475D01*
X-3762326Y8724525D01*
X-5659241Y8724525D01*
X-4602653Y9781113D01*
X-3185523Y9781113D01*
X-3178455Y9767666D01*
X-2512811Y9102021D01*
X-2498868Y9094408D01*
X-2497034Y9094539D01*
X-2490420Y9098790D01*
X-1820820Y9768391D01*
X-1814393Y9780161D01*
X-1823687Y9792175D01*
X-1864088Y9820464D01*
X-1873584Y9825947D01*
X-2063113Y9914326D01*
X-2073405Y9918072D01*
X-2275401Y9972196D01*
X-2286196Y9974099D01*
X-2494525Y9992326D01*
X-2505475Y9992326D01*
X-2713804Y9974099D01*
X-2724599Y9972196D01*
X-2926595Y9918072D01*
X-2936887Y9914326D01*
X-3126417Y9825946D01*
X-3135907Y9820466D01*
X-3177149Y9791589D01*
X-3185523Y9781113D01*
X-4602653Y9781113D01*
X-3718884Y10664882D01*
X-3656572Y10698908D01*
X-3640773Y10701308D01*
X-3581913Y10706457D01*
X-3434141Y10746053D01*
X-3366067Y10764293D01*
X-3366065Y10764294D01*
X-3360757Y10765716D01*
X-3355775Y10768039D01*
X-3158238Y10860151D01*
X-3158233Y10860154D01*
X-3153251Y10862477D01*
X-3048389Y10935902D01*
X-2970211Y10990643D01*
X-2970208Y10990645D01*
X-2965700Y10993802D01*
X-2803802Y11155700D01*
X-2672477Y11343251D01*
X-2670154Y11348233D01*
X-2670151Y11348238D01*
X-2578039Y11545775D01*
X-2578039Y11545776D01*
X-2575716Y11550757D01*
X-2516457Y11771913D01*
X-2496502Y12000000D01*
X-2516457Y12228087D01*
X-2517881Y12233402D01*
X-2574293Y12443933D01*
X-2574294Y12443935D01*
X-2575716Y12449243D01*
X-2578039Y12454225D01*
X-2670151Y12651762D01*
X-2670154Y12651767D01*
X-2672477Y12656749D01*
X-2803802Y12844300D01*
X-2965700Y13006198D01*
X-2970208Y13009355D01*
X-2970211Y13009357D01*
X-3048389Y13064098D01*
X-3153251Y13137523D01*
X-3158233Y13139846D01*
X-3158238Y13139849D01*
X-3355775Y13231961D01*
X-3355776Y13231961D01*
X-3360757Y13234284D01*
X-3366065Y13235706D01*
X-3366067Y13235707D01*
X-3576598Y13292119D01*
X-3576600Y13292119D01*
X-3581913Y13293543D01*
X-3810000Y13313498D01*
X-4038087Y13293543D01*
X-4043400Y13292119D01*
X-4043402Y13292119D01*
X-4253933Y13235707D01*
X-4253935Y13235706D01*
X-4259243Y13234284D01*
X-4264224Y13231961D01*
X-4264225Y13231961D01*
X-4461762Y13139849D01*
X-4461767Y13139846D01*
X-4466749Y13137523D01*
X-4571611Y13064098D01*
X-4649789Y13009357D01*
X-4649792Y13009355D01*
X-4654300Y13006198D01*
X-4816198Y12844300D01*
X-4947523Y12656749D01*
X-4949846Y12651767D01*
X-4949849Y12651762D01*
X-5041961Y12454225D01*
X-5044284Y12449243D01*
X-5103543Y12228087D01*
X-5104022Y12222608D01*
X-5108692Y12169231D01*
X-5134555Y12103113D01*
X-5145118Y12091117D01*
X-10169379Y7066855D01*
X-10179522Y7057753D01*
X-10209025Y7034032D01*
X-10212992Y7029304D01*
X-10241291Y6995579D01*
X-10244472Y6991931D01*
X-10246115Y6990119D01*
X-10248309Y6987925D01*
X-10275642Y6954651D01*
X-10276304Y6953853D01*
X-10336154Y6882526D01*
X-10338722Y6877856D01*
X-10342103Y6873739D01*
X-10373140Y6815855D01*
X-10385977Y6791914D01*
X-10386606Y6790755D01*
X-10428462Y6714619D01*
X-10428465Y6714611D01*
X-10431433Y6709213D01*
X-10433045Y6704131D01*
X-10435562Y6699437D01*
X-10462762Y6610469D01*
X-10463082Y6609441D01*
X-10491235Y6520694D01*
X-10491829Y6515398D01*
X-10493387Y6510302D01*
X-10494010Y6504171D01*
X-10494011Y6504165D01*
X-10495089Y6493547D01*
X-10521872Y6427796D01*
X-10576213Y6388298D01*
X-10588293Y6383769D01*
X-10588296Y6383768D01*
X-10596705Y6380615D01*
X-10713261Y6293261D01*
X-10800615Y6176705D01*
X-10851745Y6040316D01*
X-10858500Y5978134D01*
X-10858500Y4181866D01*
X-10851745Y4119684D01*
X-10800615Y3983295D01*
X-10713261Y3866739D01*
X-10596705Y3779385D01*
X-10588296Y3776233D01*
X-10588295Y3776232D01*
X-10479549Y3735465D01*
X-10422784Y3692824D01*
X-10398084Y3626262D01*
X-10413291Y3556913D01*
X-10432684Y3530432D01*
X-10559371Y3397862D01*
X-10685257Y3213320D01*
X-10779312Y3010695D01*
X-10839011Y2795430D01*
X-10862749Y2573305D01*
X-10862452Y2568152D01*
X-10862452Y2568149D01*
X-10858348Y2496981D01*
X-10849890Y2350285D01*
X-10848753Y2345239D01*
X-10848752Y2345233D01*
X-10827725Y2251931D01*
X-10800778Y2132361D01*
X-10716734Y1925384D01*
X-10600013Y1734912D01*
X-10453750Y1566062D01*
X-10281874Y1423368D01*
X-10257459Y1409101D01*
X-10208555Y1380524D01*
X-10159831Y1328886D01*
X-10146760Y1259103D01*
X-10173491Y1193331D01*
X-10213945Y1159973D01*
X-10226393Y1153493D01*
X-10230526Y1150390D01*
X-10230529Y1150388D01*
X-10302458Y1096382D01*
X-10405035Y1019365D01*
X-10559371Y857862D01*
X-10685257Y673320D01*
X-10779312Y470695D01*
X-10839011Y255430D01*
X-10862749Y33305D01*
X-10862452Y28152D01*
X-10862452Y28149D01*
X-10856989Y-66590D01*
X-10849890Y-189715D01*
X-10848753Y-194761D01*
X-10848752Y-194767D01*
X-10844441Y-213894D01*
X-10800778Y-407639D01*
X-10716734Y-614616D01*
X-10665981Y-697438D01*
X-10609913Y-788932D01*
X-10600013Y-805088D01*
X-10453750Y-973938D01*
X-10281874Y-1116632D01*
X-10257950Y-1130612D01*
X-10208555Y-1159476D01*
X-10159831Y-1211114D01*
X-10146760Y-1280897D01*
X-10173491Y-1346669D01*
X-10213945Y-1380027D01*
X-10226393Y-1386507D01*
X-10230526Y-1389610D01*
X-10230529Y-1389612D01*
X-10400900Y-1517530D01*
X-10405035Y-1520635D01*
X-10559371Y-1682138D01*
X-10685257Y-1866680D01*
X-10779312Y-2069305D01*
X-10839011Y-2284570D01*
X-10862749Y-2506695D01*
X-19491500Y-2506695D01*
X-19491500Y4365500D01*
X-19471498Y4433621D01*
X-19417842Y4480114D01*
X-19365500Y4491500D01*
X-14163190Y4491500D01*
X-14155452Y4491262D01*
X-14109655Y4488444D01*
X-14109653Y4488444D01*
X-14100695Y4487893D01*
X-14054119Y4498457D01*
X-14044145Y4500299D01*
X-13997913Y4506920D01*
X-13989742Y4510635D01*
X-13986828Y4511487D01*
X-13969449Y4517342D01*
X-13967403Y4518124D01*
X-13958645Y4520111D01*
X-13950799Y4524474D01*
X-13950797Y4524475D01*
X-13917119Y4543204D01*
X-13908059Y4547774D01*
X-13865318Y4567208D01*
X-13858515Y4573070D01*
X-13856185Y4574560D01*
X-13841151Y4585053D01*
X-13839195Y4586539D01*
X-13831348Y4590903D01*
X-13798163Y4624529D01*
X-13790730Y4631476D01*
X-13761772Y4656428D01*
X-13761770Y4656430D01*
X-13754973Y4662287D01*
X-13750093Y4669816D01*
X-13748447Y4671703D01*
X-13736964Y4685993D01*
X-13735342Y4688187D01*
X-13729036Y4694577D01*
X-13706745Y4735939D01*
X-13701572Y4744673D01*
X-13675748Y4784515D01*
X-13673178Y4793109D01*
X-13672243Y4795132D01*
X-13665218Y4812106D01*
X-13664192Y4814898D01*
X-13659934Y4822800D01*
X-13654794Y4846938D01*
X-13649235Y4865729D01*
X-13646491Y4872898D01*
X-13554804Y5112496D01*
X-13398281Y5521524D01*
X-13395818Y5527498D01*
X-13112136Y6168297D01*
X-13097574Y6201190D01*
X-13094814Y6207015D01*
X-13082127Y6232110D01*
X-12762440Y6864495D01*
X-12759379Y6870183D01*
X-12757453Y6873551D01*
X-12689776Y6991931D01*
X-12393726Y7509775D01*
X-12390376Y7515300D01*
X-11992426Y8135288D01*
X-11988797Y8140635D01*
X-11917511Y8240082D01*
X-11559576Y8739415D01*
X-11555684Y8744561D01*
X-11096330Y9320549D01*
X-11092173Y9325496D01*
X-11064805Y9356417D01*
X-10603892Y9877178D01*
X-10599489Y9881903D01*
X-10588341Y9893267D01*
X-10083551Y10407842D01*
X-10078941Y10412307D01*
X-9536717Y10911106D01*
X-9531870Y10915340D01*
X-8964802Y11385671D01*
X-8959726Y11389666D01*
X-8369298Y11830301D01*
X-8364022Y11834032D01*
X-7751768Y12243827D01*
X-7746307Y12247282D01*
X-7746285Y12247295D01*
X-7113867Y12625136D01*
X-7108257Y12628296D01*
X-6709117Y12839789D01*
X-6457253Y12973244D01*
X-6451467Y12976122D01*
X-5783668Y13287225D01*
X-5777743Y13289803D01*
X-5094840Y13566274D01*
X-5088790Y13568544D01*
X-4795148Y13670236D01*
X-4392648Y13809628D01*
X-4386500Y13811582D01*
X-4123546Y13887793D01*
X-3678873Y14016671D01*
X-3672622Y14018310D01*
X-2955431Y14186846D01*
X-2949105Y14188162D01*
X-2224237Y14319705D01*
X-2217851Y14320696D01*
X-1487151Y14414908D01*
X-1480724Y14415569D01*
X-1175116Y14439128D01*
X-746185Y14472194D01*
X-739771Y14472524D01*
X-149574Y14487664D01*
X-3256Y14491417D01*
X3206Y14491417D01*
X739703Y14472526D01*
G37*
%TD.AperFunction*%
%TD*%
M02*
