%TF.GenerationSoftware,KiCad,Pcbnew,(6.0.6)*%
%TF.CreationDate,2023-05-18T11:46:39+08:00*%
%TF.ProjectId,JoystickPCB,4a6f7973-7469-4636-9b50-43422e6b6963,rev?*%
%TF.SameCoordinates,Original*%
%TF.FileFunction,Legend,Bot*%
%TF.FilePolarity,Positive*%
%FSLAX46Y46*%
G04 Gerber Fmt 4.6, Leading zero omitted, Abs format (unit mm)*
G04 Created by KiCad (PCBNEW (6.0.6)) date 2023-05-18 11:46:39*
%MOMM*%
%LPD*%
G01*
G04 APERTURE LIST*
%ADD10C,0.150000*%
%ADD11C,0.120000*%
G04 APERTURE END LIST*
D10*
X-11619047Y-5071428D02*
X-12380952Y-5071428D01*
X-11738095Y-2952380D02*
X-11738095Y-1952380D01*
X-12309523Y-2952380D02*
X-11880952Y-2380952D01*
X-12309523Y-1952380D02*
X-11738095Y-2523809D01*
X-12000000Y123809D02*
X-12000000Y-352380D01*
X-11666666Y647619D02*
X-12000000Y123809D01*
X-12333333Y647619D01*
X-11666666Y3047619D02*
X-12333333Y2047619D01*
X-12333333Y3047619D02*
X-11666666Y2047619D01*
X-11619047Y4928571D02*
X-12380952Y4928571D01*
X-12000000Y4547619D02*
X-12000000Y5309523D01*
%TO.C,R3*%
X24452380Y-833333D02*
X23976190Y-500000D01*
X24452380Y-261904D02*
X23452380Y-261904D01*
X23452380Y-642857D01*
X23500000Y-738095D01*
X23547619Y-785714D01*
X23642857Y-833333D01*
X23785714Y-833333D01*
X23880952Y-785714D01*
X23928571Y-738095D01*
X23976190Y-642857D01*
X23976190Y-261904D01*
X23452380Y-1166666D02*
X23452380Y-1785714D01*
X23833333Y-1452380D01*
X23833333Y-1595238D01*
X23880952Y-1690476D01*
X23928571Y-1738095D01*
X24023809Y-1785714D01*
X24261904Y-1785714D01*
X24357142Y-1738095D01*
X24404761Y-1690476D01*
X24452380Y-1595238D01*
X24452380Y-1309523D01*
X24404761Y-1214285D01*
X24357142Y-1166666D01*
%TO.C,R2*%
X3166666Y15547619D02*
X3500000Y16023809D01*
X3738095Y15547619D02*
X3738095Y16547619D01*
X3357142Y16547619D01*
X3261904Y16500000D01*
X3214285Y16452380D01*
X3166666Y16357142D01*
X3166666Y16214285D01*
X3214285Y16119047D01*
X3261904Y16071428D01*
X3357142Y16023809D01*
X3738095Y16023809D01*
X2785714Y16452380D02*
X2738095Y16500000D01*
X2642857Y16547619D01*
X2404761Y16547619D01*
X2309523Y16500000D01*
X2261904Y16452380D01*
X2214285Y16357142D01*
X2214285Y16261904D01*
X2261904Y16119047D01*
X2833333Y15547619D01*
X2214285Y15547619D01*
%TO.C,J1*%
X-21166666Y9547619D02*
X-21166666Y8833333D01*
X-21119047Y8690476D01*
X-21023809Y8595238D01*
X-20880952Y8547619D01*
X-20785714Y8547619D01*
X-22166666Y8547619D02*
X-21595238Y8547619D01*
X-21880952Y8547619D02*
X-21880952Y9547619D01*
X-21785714Y9404761D01*
X-21690476Y9309523D01*
X-21595238Y9261904D01*
D11*
%TO.C,R3*%
X10630000Y3270000D02*
X10960000Y3270000D01*
X13370000Y-3270000D02*
X13370000Y3270000D01*
X10630000Y-3270000D02*
X10630000Y3270000D01*
X10960000Y-3270000D02*
X10630000Y-3270000D01*
X13040000Y-3270000D02*
X13370000Y-3270000D01*
X13370000Y3270000D02*
X13040000Y3270000D01*
%TO.C,R2*%
X3270000Y13370000D02*
X3270000Y13040000D01*
X-3270000Y10630000D02*
X3270000Y10630000D01*
X-3270000Y13370000D02*
X3270000Y13370000D01*
X-3270000Y13040000D02*
X-3270000Y13370000D01*
X-3270000Y10960000D02*
X-3270000Y10630000D01*
X3270000Y10630000D02*
X3270000Y10960000D01*
%TO.C,J1*%
X-8170000Y5080000D02*
X-8170000Y6410000D01*
X-8170000Y3810000D02*
X-10830000Y3810000D01*
X-8170000Y-6410000D02*
X-10830000Y-6410000D01*
X-8170000Y6410000D02*
X-9500000Y6410000D01*
X-10830000Y3810000D02*
X-10830000Y-6410000D01*
X-8170000Y3810000D02*
X-8170000Y-6410000D01*
%TD*%
M02*
